# xmcd
#
# Track frame offsets:
#	150
#	12867
#	27999
#	40211
#	51935
#	64888
#	76185
#	90506
#	101969
#	113675
#	129297
#	140601
#	152625
#	167875
#	176709
#	188591
#	198880
#	211530
#	224381
#	237294
#	249769
#	263225
#	275286
#	290585
#	304983
#	319505
#
# Disc length: 4423 seconds
# Revision: 0
# Processed by: cddbd v1.5.2PL0 Copyright (c) Steve Scherf et al.
# Submitted via: dBpowerAMP V12.0
#
DISCID=6711451a
DTITLE=Lowell Fulson - Lowell Fulson
DYEAR=1962
DGENRE=Blues
TTITLE0=Western Union Blues 
TTITLE1=Lazy Woman Blues
TTITLE2=River Blues Part 1
TTITLE3=River Blues Part 2
TTITLE4=I Walked All Night
TTITLE5=Between Midnight and Day
TTITLE6=Three O' Clock Blues
TTITLE7=The Blues Killing Me
TTITLE8=Did You Ever Feel Lucky
TTITLE9=I'm Wild About You
TTITLE10=Blues With A Feeling
TTITLE11=Why Can't You Cry For Me
TTITLE12=There Is A Time For Everything
TTITLE13=Lowell Jumps One
TTITLE14=Crying Blues [Bonus]
TTITLE15=You're Gonna Miss Me [Bonus]
TTITLE16=Miss Katy Lee Blues [Bonus]
TTITLE17=Ramblin Blues [Bonus]
TTITLE18=Fulson Blues [Bonus]
TTITLE19=San Francisco Blues [Bonus]
TTITLE20=Trouble Blues [Bonus]
TTITLE21=I Want To See My Baby [Bonus]
TTITLE22=Black Widow Spider Blues [Bonus]
TTITLE23=Don't Be So Evil [Bonus]
TTITLE24=I'm Prison Bound [Bonus]
TTITLE25=My Baby Left Me [Bonus]
EXTD=
EXTT0=
EXTT1=
EXTT2=
EXTT3=
EXTT4=
EXTT5=
EXTT6=
EXTT7=
EXTT8=
EXTT9=
EXTT10=
EXTT11=
EXTT12=
EXTT13=
EXTT14=
EXTT15=
EXTT16=
EXTT17=
EXTT18=
EXTT19=
EXTT20=
EXTT21=
EXTT22=
EXTT23=
EXTT24=
EXTT25=
PLAYORDER=
